<?xml version="1.0" encoding="UTF-8" standalone="no"?>
<!-- Created with Inkscape (http://www.inkscape.org/) -->

<svg
   xmlns:dc="http://purl.org/dc/elements/1.1/"
   xmlns:cc="http://creativecommons.org/ns#"
   xmlns:rdf="http://www.w3.org/1999/02/22-rdf-syntax-ns#"
   xmlns:svg="http://www.w3.org/2000/svg"
   xmlns="http://www.w3.org/2000/svg"
   xmlns:sodipodi="http://sodipodi.sourceforge.net/DTD/sodipodi-0.dtd"
   xmlns:inkscape="http://www.inkscape.org/namespaces/inkscape"
   width="951.36261"
   height="622.88092"
   id="svg2"
   version="1.1"
   inkscape:version="0.47 r22583"
   sodipodi:docname="office-desk.svg">
  <title
     id="title3716">An Office Desk</title>
  <defs
     id="defs4">
    <inkscape:perspective
       sodipodi:type="inkscape:persp3d"
       inkscape:vp_x="0 : 526.18109 : 1"
       inkscape:vp_y="0 : 1000 : 0"
       inkscape:vp_z="744.09448 : 526.18109 : 1"
       inkscape:persp3d-origin="372.04724 : 350.78739 : 1"
       id="perspective10" />
    <inkscape:perspective
       id="perspective2825"
       inkscape:persp3d-origin="0.5 : 0.33333333 : 1"
       inkscape:vp_z="1 : 0.5 : 1"
       inkscape:vp_y="0 : 1000 : 0"
       inkscape:vp_x="0 : 0.5 : 1"
       sodipodi:type="inkscape:persp3d" />
    <inkscape:perspective
       id="perspective2917"
       inkscape:persp3d-origin="0.5 : 0.33333333 : 1"
       inkscape:vp_z="1 : 0.5 : 1"
       inkscape:vp_y="0 : 1000 : 0"
       inkscape:vp_x="0 : 0.5 : 1"
       sodipodi:type="inkscape:persp3d" />
    <filter
       inkscape:collect="always"
       id="filter3712"
       x="-0.042490456"
       width="1.0849808"
       y="-0.23567776"
       height="1.4713556"
       color-interpolation-filters="sRGB">
      <feGaussianBlur
         inkscape:collect="always"
         stdDeviation="15.328206"
         id="feGaussianBlur3714" />
    </filter>
  </defs>
  <sodipodi:namedview
     id="base"
     pagecolor="#ffffff"
     bordercolor="#666666"
     borderopacity="1.0"
     inkscape:pageopacity="0.0"
     inkscape:pageshadow="2"
     inkscape:zoom="0.34794922"
     inkscape:cx="124.50547"
     inkscape:cy="590.05366"
     inkscape:document-units="px"
     inkscape:current-layer="layer1"
     showgrid="false"
     inkscape:window-width="1280"
     inkscape:window-height="706"
     inkscape:window-x="-8"
     inkscape:window-y="-8"
     inkscape:window-maximized="1" />
  <metadata
     id="metadata7">
    <rdf:RDF>
      <cc:Work
         rdf:about="">
        <dc:format>image/svg+xml</dc:format>
        <dc:type
           rdf:resource="http://purl.org/dc/dcmitype/StillImage" />
        <dc:title>An Office Desk</dc:title>
        <dc:creator>
          <cc:Agent>
            <dc:title>Sheikh Tuhin</dc:title>
          </cc:Agent>
        </dc:creator>
        <dc:date>02/05/2010</dc:date>
        <dc:subject>
          <rdf:Bag>
            <rdf:li>desk</rdf:li>
            <rdf:li>office</rdf:li>
            <rdf:li></rdf:li>
          </rdf:Bag>
        </dc:subject>
        <cc:license
           rdf:resource="http://creativecommons.org/licenses/publicdomain/" />
      </cc:Work>
      <cc:License
         rdf:about="http://creativecommons.org/licenses/publicdomain/">
        <cc:permits
           rdf:resource="http://creativecommons.org/ns#Reproduction" />
        <cc:permits
           rdf:resource="http://creativecommons.org/ns#Distribution" />
        <cc:permits
           rdf:resource="http://creativecommons.org/ns#DerivativeWorks" />
      </cc:License>
    </rdf:RDF>
  </metadata>
  <g
     inkscape:label="Layer 1"
     inkscape:groupmode="layer"
     id="layer1"
     transform="translate(-64.520195,-422.95999)"
     style="display:inline">
    <path
       sodipodi:nodetypes="ccccc"
       id="path2934"
       d="M 101.30789,916.92744 689.44483,760.95999 979.09513,827.50673 376.8027,1009.0532 101.30789,916.92744 z"
       style="opacity:0.8;fill:#000000;fill-opacity:0.99607843;stroke:none;filter:url(#filter3712)" />
    <path
       transform="translate(0,308.2677)"
       style="fill:#000000;fill-opacity:0.99607843;stroke:none"
       d="m 138.19046,224.6884 688.85284,-74 0,192.20515 -688.85284,150 0,-268.20515 z"
       id="rect2896"
       sodipodi:nodetypes="ccccc" />
    <g
       id="g2884">
      <path
         style="fill:#cccccc;fill-opacity:0.99607843;stroke:none"
         d="m 702.68875,499.72854 11.49593,-1.59617 0,277.80906 -11.49593,1.59617 0,-277.80906 z"
         id="path2880"
         sodipodi:nodetypes="ccccc" />
      <path
         style="fill:#666666;fill-opacity:0.99607843;stroke:none"
         d="m 692.3295,497.99451 11.85518,1.73403 0,277.80906 -11.85518,-1.73403 0,-277.80906 z"
         id="path2882"
         sodipodi:nodetypes="ccccc" />
    </g>
    <g
       id="g2888">
      <path
         style="fill:#cccccc;fill-opacity:0.99607843;stroke:none"
         d="m 139.38816,532.04654 11.49593,-2.24438 0,390.62718 -11.49593,2.24438 0,-390.62718 z"
         id="path2876"
         sodipodi:nodetypes="ccccc" />
      <path
         style="fill:#666666;fill-opacity:0.99607843;stroke:none"
         d="m 129.02891,529.60832 11.85518,2.43822 0,390.62718 -11.85518,-2.43822 0,-390.62718 z"
         id="path2878"
         sodipodi:nodetypes="ccccc" />
    </g>
    <g
       id="g2892">
      <path
         style="fill:#cccccc;fill-opacity:0.99607843;stroke:none"
         d="m 946.97727,478.6372 11.49593,-2.02284 0,352.06909 -11.49593,2.02284 0,-352.06909 z"
         id="path2872"
         sodipodi:nodetypes="ccccc" />
      <path
         style="fill:#666666;fill-opacity:0.99607843;stroke:none"
         d="m 936.61802,476.43965 11.85518,2.19755 0,352.06909 -11.85518,-2.19755 0,-352.06909 z"
         id="path2874"
         sodipodi:nodetypes="ccccc" />
    </g>
    <path
       transform="translate(0,308.2677)"
       style="fill:#c87137;fill-opacity:0.99607843;stroke:none"
       d="m 829.14397,195.96537 118.70728,-23.30564 0,249.16251 -118.77078,37.74983 0.0635,-263.6067 z"
       id="rect2838"
       sodipodi:nodetypes="ccccc" />
    <path
       style="fill:#784421;fill-opacity:0.99607843;stroke:none;display:inline"
       d="m 836.32892,607.61337 108.64833,-26 0,139.69913 -108.64833,30 0,-143.69913 z"
       id="rect2903"
       sodipodi:nodetypes="ccccc" />
    <path
       style="fill:#28170b;fill-opacity:0.99607843;stroke:none"
       d="m 523.06482,449.17947 306.07913,57.48527 0,261.17318 -306.07913,-76 0,-242.65845 z"
       id="rect2841"
       sodipodi:nodetypes="ccccc" />
    <path
       style="fill:#cccccc;fill-opacity:0.99607843;stroke:none"
       d="m 380.8027,588.21399 11.49593,-2.35925 0,410.62027 -11.49593,2.35925 0,-410.62027 z"
       id="rect2831"
       sodipodi:nodetypes="ccccc" />
    <path
       style="fill:#666666;fill-opacity:0.99607843;stroke:none"
       d="m 370.44345,585.65098 11.85518,2.56301 0,410.62027 -11.85518,-2.56301 0,-410.62027 z"
       id="rect2833"
       sodipodi:nodetypes="ccccc" />
    <path
       sodipodi:nodetypes="ccccc"
       id="path2844"
       d="m 138.6646,538.83594 232.07913,52 0,284.65845 -230.07913,-72 -2,-264.65845 z"
       style="fill:#784421;fill-opacity:0.99607843;stroke:none" />
    <path
       transform="translate(0,308.2677)"
       style="fill:#28170b;fill-opacity:0.99607843;stroke:none"
       d="m 101.30788,206.65973 279.49855,63.95237 0.0159,16.34671 -279.51442,-64.49218 0,-15.8069 z"
       id="rect2846"
       sodipodi:nodetypes="ccccc" />
    <path
       transform="translate(0,308.2677)"
       style="fill:#c87137;fill-opacity:0.99607843;stroke:none"
       d="m 392.29861,281.0723 166.691,-32 0,283.20517 -166.691,48 0,-299.20517 z"
       id="rect2835"
       sodipodi:nodetypes="ccccc" />
    <path
       style="fill:#784421;fill-opacity:0.99607843;stroke:none"
       d="M 380.8027,576.87354 967.02357,467.47357 c 0,0 0,12.36992 0,12.36992 l -586.22087,115.39997 0,-18.36992 z"
       id="rect2849"
       sodipodi:nodetypes="ccccc" />
    <path
       style="fill:#784421;fill-opacity:0.99607843;stroke:none;display:inline"
       d="m 836.32892,515.64593 108.51698,-22 0,71.44204 -108.51698,26 0,-75.44204 z"
       id="rect2906"
       sodipodi:nodetypes="ccccc" />
    <path
       transform="translate(0,308.2677)"
       style="fill:#502d16;fill-opacity:0.99607843;stroke:none"
       d="M 101.30789,206.65974 685.44483,114.69229 967.09513,159.23903 380.8027,270.78548 101.30789,206.65974 z"
       id="rect2852"
       sodipodi:nodetypes="ccccc" />
    <path
       transform="translate(0,308.2677)"
       style="fill:#784421;fill-opacity:0.99607843;stroke:none"
       d="m 402.35757,394.59464 143.69913,-30 0,156.92169 -143.69913,42 0,-168.92169 z"
       id="rect2855"
       sodipodi:nodetypes="ccccc" />
    <path
       transform="translate(0,308.2677)"
       style="fill:#784421;fill-opacity:0.99607843;stroke:none"
       d="m 405.95004,298.93814 141.54364,-26 0,75.44204 -141.54364,30 0,-79.44204 z"
       id="rect2858"
       sodipodi:nodetypes="ccccc" />
    <path
       transform="translate(0,308.2677)"
       style="fill:#e6e6e6;fill-opacity:0.99607843;stroke:none"
       d="m 455.52625,419.89746 56.04265,-10 0,7.90345 -56.04265,10 0,-7.90345 z"
       id="rect2861"
       sodipodi:nodetypes="ccccc" />
    <path
       sodipodi:nodetypes="ccccc"
       id="path2864"
       d="m 455.52625,641.94568 56.04265,-10 0,7.90345 -56.04265,10 0,-7.90345 z"
       style="fill:#cccccc;fill-opacity:0.99607843;stroke:none" />
    <path
       style="fill:#cccccc;fill-opacity:0.99607843;stroke:none"
       d="m 877.99103,551.92996 42.04265,-8 0,7.90345 -42.04265,8 0,-7.90345 z"
       id="path2866"
       sodipodi:nodetypes="ccccc" />
    <path
       sodipodi:nodetypes="ccccc"
       id="path2868"
       d="m 876.19479,627.73125 42.04265,-8 0,7.90345 -42.04265,8 0,-7.90345 z"
       style="fill:#cccccc;fill-opacity:0.99607843;stroke:none" />
  </g>
</svg>
